<svg width="155" height="152" viewBox="0 0 155 152" fill="none" xmlns="http://www.w3.org/2000/svg">
<g clip-path="url(#clip0)">
<path d="M4 123.529H144V140H4V123.529Z" fill="black"/>
<path d="M105.658 107.059L110.805 86.4706C101.682 86.4706 91.1186 86.4706 86.3531 86.4706V98.8235H20.4707V107.059H105.658Z" fill="black"/>
<path d="M82.2361 20.5882H74.0008V0H57.5302V20.5882H49.2949V45.2941H82.2361V20.5882Z" fill="black"/>
<path d="M57.5302 86.4706H74.0008V70H82.2361V53.5294H49.2949V70H57.5302V86.4706Z" fill="black"/>
<path d="M118.87 78.2353H143.902C142.264 50.7132 119.358 28.8235 91.4312 28.8235H90.4707V53.5445C104.75 53.9675 116.53 64.5126 118.87 78.2353Z" fill="black"/>
<path d="M119.294 86.4706C119.032 87.5187 114.246 106.662 112.088 115.294H144V86.4706C140.947 86.4706 121.109 86.4706 119.294 86.4706Z" fill="black"/>
</g>
<defs>
<clipPath id="clip0">
<rect width="140" height="140" fill="white" transform="translate(4)"/>
</clipPath>
</defs>
</svg>
