<svg width="155" height="152" viewBox="0 0 155 152" fill="none" xmlns="http://www.w3.org/2000/svg">
<g clip-path="url(#clip0)">
<path d="M110.734 63.3286C107.642 69.3569 101.375 73.4999 94.1461 73.4999C86.9168 73.4999 80.6525 69.3569 77.5584 63.3286H6V127.744H111.591C108.117 123.614 106.011 118.297 106.011 112.489C106.011 101.15 114.011 91.6557 124.657 89.3193V63.3286H110.734ZM65.3287 115.879C54.0954 115.879 44.9861 106.77 44.9861 95.5364C44.9861 84.3032 54.0928 75.1938 65.3287 75.1938C76.5646 75.1938 85.6713 84.3005 85.6713 95.5364C85.6713 106.772 76.562 115.879 65.3287 115.879Z" fill="black"/>
<path d="M129.74 127.734C138.165 127.734 144.996 120.904 144.996 112.478C144.996 104.053 138.165 97.2225 129.74 97.2225C121.315 97.2225 114.484 104.053 114.484 112.478C114.484 120.904 121.315 127.734 129.74 127.734Z" fill="black"/>
<path d="M94.1459 65.0251C99.7634 65.0251 104.317 60.4713 104.317 54.8538C104.317 49.2363 99.7634 44.6825 94.1459 44.6825C88.5285 44.6825 83.9746 49.2363 83.9746 54.8538C83.9746 60.4713 88.5285 65.0251 94.1459 65.0251Z" fill="black"/>
<path d="M28.2277 19.2559L21.8008 54.8541H75.4997C75.4997 44.5727 83.8644 36.208 94.1458 36.208C104.427 36.208 112.792 44.5727 112.792 54.8541H124.657H133.132V63.3289V89.0259C134.141 89.1728 135.133 89.3773 136.098 89.6448L145 40.3353L28.2277 19.2559Z" fill="black"/>
</g>
<defs>
<clipPath id="clip0">
<rect width="139" height="139" fill="white" transform="translate(6 4)"/>
</clipPath>
</defs>
</svg>
