<svg width="142" height="142" viewBox="0 0 142 142" fill="none" xmlns="http://www.w3.org/2000/svg">
<path d="M71 142C80.1904 142 87.6406 134.55 87.6406 125.359C87.6406 116.169 80.1904 108.719 71 108.719C61.8096 108.719 54.3594 116.169 54.3594 125.359C54.3594 134.55 61.8096 142 71 142Z" fill="black"/>
<path d="M71 0C47.1432 0 27.7344 19.4088 27.7344 43.2656V47.4258H61.0156V43.2656C61.0156 37.7601 65.4944 33.2812 71 33.2812C76.5056 33.2812 80.9844 37.7601 80.9844 43.2656C80.9844 46.1994 79.6967 48.9761 77.451 50.8845L54.3594 70.5169V100.398H87.6406V85.905L99.0051 76.2432C108.703 68.0022 114.266 55.9827 114.266 43.2656C114.266 19.4088 94.8568 0 71 0V0Z" fill="black"/>
</svg>
